<svg xmlns="http://www.w3.org/2000/svg" width="640" height="438" viewBox="0 0 640 438" font-family="Helvetica, Arial, sans-serif"><rect width="640" height="438" fill="#f7f7fa"/><text x="12" y="22" font-size="14" fill="#1c1c22" font-weight="bold">20 000 separate fills on Firefox: accelerated against software</text><text x="12" y="40" font-size="10.5" fill="#8a8a96">A2 sustained ms per frame, held still, M6 (Firefox 156.0.1, Apple M4 GPU). The verdict is Gecko's own (A7): "accel"</text><text x="12" y="54" font-size="10.5" fill="#8a8a96">means the green debug square was on. Each load is 60 000 path vertices; "of buffer" counts one tessellation per distinct shape.</text><rect x="8.0" y="72.0" width="624.0" height="30.0" fill="#fff" fill-opacity="1"/><text x="16" y="85" font-size="10.5" fill="#1c1c22">scattered, 1 px</text><text x="16" y="97" font-size="9" fill="#8a8a96">0.07 of the 4 MB buffer</text><rect x="200.0" y="77.0" width="265.0" height="9.0" fill="#d62728" fill-opacity="0.8"/><text x="469.0357096055563" y="85" font-size="9.5" fill="#1c1c22">24.5 accel (4 MB)</text><rect x="200.0" y="89.0" width="70.6" height="9.0" fill="#2e8b3d" fill-opacity="0.8"/><text x="274.57528502162234" y="97" font-size="9.5" fill="#1c1c22">6.5 software</text><rect x="8.0" y="106.0" width="624.0" height="30.0" fill="#fff" fill-opacity="1"/><text x="16" y="119" font-size="10.5" fill="#1c1c22">scattered, 2 px</text><text x="16" y="131" font-size="9" fill="#8a8a96">0.23 of the 4 MB buffer</text><rect x="200.0" y="111.0" width="292.8" height="9.0" fill="#d62728" fill-opacity="0.8"/><text x="496.8204036168261" y="119" font-size="9.5" fill="#1c1c22">27.1 accel (4 MB)</text><rect x="200.0" y="123.0" width="77.3" height="9.0" fill="#2e8b3d" fill-opacity="0.8"/><text x="281.2998296422487" y="131" font-size="9.5" fill="#1c1c22">7.2 software</text><rect x="8.0" y="140.0" width="624.0" height="30.0" fill="#fff" fill-opacity="1"/><text x="16" y="153" font-size="10.5" fill="#1c1c22">scattered, 4 px</text><text x="16" y="165" font-size="9" fill="#8a8a96">0.91 of the 4 MB buffer</text><rect x="200.0" y="145.0" width="274.3" height="9.0" fill="#d62728" fill-opacity="0.8"/><text x="478.3441226575809" y="153" font-size="9.5" fill="#1c1c22">25.4 accel (4 MB)</text><rect x="200.0" y="157.0" width="81.8" height="9.0" fill="#2e8b3d" fill-opacity="0.8"/><text x="285.82970777093436" y="165" font-size="9.5" fill="#1c1c22">7.6 software</text><rect x="8.0" y="174.0" width="624.0" height="30.0" fill="#fff" fill-opacity="1"/><text x="16" y="187" font-size="10.5" fill="#1c1c22">scattered, 8 px</text><text x="16" y="199" font-size="9" fill="#8a8a96">1.84 of the 4 MB buffer</text><rect x="200.0" y="179.0" width="90.2" height="9.0" fill="#8a8a96" fill-opacity="0.8"/><text x="294.1759271393002" y="187" font-size="9.5" fill="#1c1c22">8.3 demoted (4 MB)</text><rect x="200.0" y="191.0" width="90.0" height="9.0" fill="#2e8b3d" fill-opacity="0.8"/><text x="294.04619315948105" y="199" font-size="9.5" fill="#1c1c22">8.3 software</text><rect x="8.0" y="208.0" width="624.0" height="30.0" fill="#fff" fill-opacity="1"/><text x="16" y="221" font-size="10.5" fill="#1c1c22">scattered, 15 px</text><text x="16" y="233" font-size="9" fill="#8a8a96">2.42 of the 4 MB buffer</text><rect x="200.0" y="213.0" width="126.4" height="9.0" fill="#8a8a96" fill-opacity="0.8"/><text x="330.4257633337702" y="221" font-size="9.5" fill="#1c1c22">11.7 demoted (4 MB)</text><rect x="200.0" y="225.0" width="126.1" height="9.0" fill="#2e8b3d" fill-opacity="0.8"/><text x="330.0581837242825" y="233" font-size="9.5" fill="#1c1c22">11.7 software</text><rect x="8.0" y="242.0" width="624.0" height="30.0" fill="#fff" fill-opacity="1"/><text x="16" y="255" font-size="10.5" fill="#1c1c22">mesh, 1 px</text><text x="16" y="267" font-size="9" fill="#8a8a96">0.00 of the 4 MB buffer</text><rect x="200.0" y="247.0" width="266.7" height="9.0" fill="#d62728" fill-opacity="0.8"/><text x="470.65738435329575" y="255" font-size="9.5" fill="#1c1c22">24.7 accel (4 MB)</text><rect x="200.0" y="259.0" width="64.1" height="9.0" fill="#2e8b3d" fill-opacity="0.8"/><text x="268.14264185558903" y="267" font-size="9.5" fill="#1c1c22">5.9 software</text><rect x="8.0" y="276.0" width="624.0" height="30.0" fill="#fff" fill-opacity="1"/><text x="16" y="289" font-size="10.5" fill="#1c1c22">mesh, 2 px</text><text x="16" y="301" font-size="9" fill="#8a8a96">0.00 of the 4 MB buffer</text><rect x="200.0" y="281.0" width="272.6" height="9.0" fill="#d62728" fill-opacity="0.8"/><text x="476.635958589962" y="289" font-size="9.5" fill="#1c1c22">25.2 accel (4 MB)</text><rect x="200.0" y="293.0" width="62.1" height="9.0" fill="#2e8b3d" fill-opacity="0.8"/><text x="266.11014283842223" y="301" font-size="9.5" fill="#1c1c22">5.7 software</text><rect x="8.0" y="310.0" width="624.0" height="30.0" fill="#fff" fill-opacity="1"/><text x="16" y="323" font-size="10.5" fill="#1c1c22">mesh, 4 px</text><text x="16" y="335" font-size="9" fill="#8a8a96">0.00 of the 4 MB buffer</text><rect x="200.0" y="315.0" width="284.4" height="9.0" fill="#d62728" fill-opacity="0.8"/><text x="488.3985060935657" y="323" font-size="9.5" fill="#1c1c22">26.3 accel (4 MB)</text><rect x="200.0" y="327.0" width="66.6" height="9.0" fill="#2e8b3d" fill-opacity="0.8"/><text x="270.5535316472284" y="335" font-size="9.5" fill="#1c1c22">6.2 software</text><rect x="8.0" y="344.0" width="624.0" height="30.0" fill="#fff" fill-opacity="1"/><text x="16" y="357" font-size="10.5" fill="#1c1c22">mesh, 7 px</text><text x="16" y="369" font-size="9" fill="#8a8a96">0.00 of the 4 MB buffer</text><rect x="200.0" y="349.0" width="290.8" height="9.0" fill="#d62728" fill-opacity="0.8"/><text x="494.75547110470444" y="357" font-size="9.5" fill="#1c1c22">26.9 accel (4 MB)</text><rect x="200.0" y="361.0" width="69.1" height="9.0" fill="#2e8b3d" fill-opacity="0.8"/><text x="273.12658891364174" y="369" font-size="9.5" fill="#1c1c22">6.4 software</text><rect x="12.0" y="388.0" width="12.0" height="9.0" fill="#d62728" fill-opacity="0.8"/><text x="30" y="396" font-size="10" fill="#1c1c22">accelerated (green square on)</text><rect x="220.0" y="388.0" width="12.0" height="9.0" fill="#8a8a96" fill-opacity="0.8"/><text x="238" y="396" font-size="10" fill="#1c1c22">demoted to software by Gecko</text><rect x="420.0" y="388.0" width="12.0" height="9.0" fill="#2e8b3d" fill-opacity="0.8"/><text x="438" y="396" font-size="10" fill="#1c1c22">acceleration off</text><text x="12" y="418" font-size="10" fill="#8a8a96">Every load Gecko keeps accelerated runs 3.3–4.4× slower than software: the cost is per fill() call, not tessellation (§6.17).</text></svg>
