<svg xmlns="http://www.w3.org/2000/svg" width="1000" height="1105" viewBox="0 0 1000 1105" font-family="Helvetica, Arial, sans-serif"><rect width="1000" height="1105" fill="#f7f7fa"/><text x="16" y="26" font-size="13" fill="#1c1c22" font-weight="bold">Sprites, triangles and image sources, CPU (M4) and GPU (M6) — bench/imagepage.html, T75–T77</text><text x="16" y="44" font-size="10" fill="#8a8a96">A2 sustained, ms per frame of the workload, each panel on its own scale. Bars per source: img-png, img-jpg, bitmap, canvas (dark → light).</text><text x="16" y="57" font-size="10" fill="#8a8a96">Faint bar with ≤ = the row ran at the display refresh: an upper bound, not a cost. M6 is the median of 2 calibrated runs.</text><text x="16" y="79" font-size="11" fill="#4f81bd" font-weight="bold">M4 · Chromium 141, CPU</text><text x="16" y="99" font-size="10" fill="#8a8a96">2000 sprites, 1:1</text><text x="120" y="119" font-size="11" fill="#1c1c22" text-anchor="end">drawImage</text><rect x="128.0" y="101.0" width="16.8" height="6.0" fill="#4f81bd" fill-opacity="1"/><rect x="128.0" y="108.0" width="16.2" height="6.0" fill="#4f81bd" fill-opacity="0.8"/><rect x="128.0" y="115.0" width="10.5" height="6.0" fill="#4f81bd" fill-opacity="0.6"/><rect x="128.0" y="122.0" width="10.5" height="6.0" fill="#4f81bd" fill-opacity="0.4"/><text x="150.76902020771274" y="123" font-size="10" fill="#1c1c22">14.1–22.6 ms</text><text x="120" y="155" font-size="11" fill="#1c1c22" text-anchor="end">pattern</text><rect x="128.0" y="137.0" width="24.4" height="6.0" fill="#4f81bd" fill-opacity="1"/><rect x="128.0" y="144.0" width="25.5" height="6.0" fill="#4f81bd" fill-opacity="0.8"/><rect x="128.0" y="151.0" width="21.9" height="6.0" fill="#4f81bd" fill-opacity="0.6"/><rect x="128.0" y="158.0" width="23.5" height="6.0" fill="#4f81bd" fill-opacity="0.4"/><text x="159.47424522985267" y="159" font-size="10" fill="#1c1c22">29.6–34.4 ms</text><text x="16" y="185" font-size="10" fill="#8a8a96">2000 sprites, rotated 1.5×</text><text x="120" y="205" font-size="11" fill="#1c1c22" text-anchor="end">drawImage</text><rect x="128.0" y="187.0" width="168.2" height="6.0" fill="#4f81bd" fill-opacity="1"/><rect x="128.0" y="194.0" width="171.2" height="6.0" fill="#4f81bd" fill-opacity="0.8"/><rect x="128.0" y="201.0" width="145.2" height="6.0" fill="#4f81bd" fill-opacity="0.6"/><rect x="128.0" y="208.0" width="145.8" height="6.0" fill="#4f81bd" fill-opacity="0.4"/><text x="305.21288141051446" y="209" font-size="10" fill="#1c1c22">196.0–231.2 ms</text><text x="120" y="241" font-size="11" fill="#1c1c22" text-anchor="end">pattern</text><rect x="128.0" y="223.0" width="217.0" height="6.0" fill="#4f81bd" fill-opacity="1"/><rect x="128.0" y="230.0" width="221.7" height="6.0" fill="#4f81bd" fill-opacity="0.8"/><rect x="128.0" y="237.0" width="214.6" height="6.0" fill="#4f81bd" fill-opacity="0.6"/><rect x="128.0" y="244.0" width="230.0" height="6.0" fill="#4f81bd" fill-opacity="0.4"/><text x="364" y="245" font-size="10" fill="#1c1c22">289.8–310.5 ms</text><text x="16" y="271" font-size="10" fill="#8a8a96">1152 triangles</text><text x="120" y="291" font-size="11" fill="#1c1c22" text-anchor="end">clip+drawImage</text><rect x="128.0" y="273.0" width="25.8" height="6.0" fill="#4f81bd" fill-opacity="1"/><rect x="128.0" y="280.0" width="25.5" height="6.0" fill="#4f81bd" fill-opacity="0.8"/><rect x="128.0" y="287.0" width="25.5" height="6.0" fill="#4f81bd" fill-opacity="0.6"/><rect x="128.0" y="294.0" width="25.0" height="6.0" fill="#4f81bd" fill-opacity="0.4"/><text x="159.81940262458738" y="295" font-size="10" fill="#1c1c22">33.7–34.9 ms</text><text x="120" y="327" font-size="11" fill="#1c1c22" text-anchor="end">pattern fill</text><rect x="128.0" y="309.0" width="19.9" height="6.0" fill="#4f81bd" fill-opacity="1"/><rect x="128.0" y="316.0" width="20.1" height="6.0" fill="#4f81bd" fill-opacity="0.8"/><rect x="128.0" y="323.0" width="20.5" height="6.0" fill="#4f81bd" fill-opacity="0.6"/><rect x="128.0" y="330.0" width="18.6" height="6.0" fill="#4f81bd" fill-opacity="0.4"/><text x="154.49538684485952" y="331" font-size="10" fill="#1c1c22">25.1–27.7 ms</text><text x="516" y="79" font-size="11" fill="#2e8b3d" font-weight="bold">M6 · Chrome 153, Graphite GPU</text><text x="516" y="99" font-size="10" fill="#8a8a96">2000 sprites, 1:1</text><text x="620" y="119" font-size="11" fill="#1c1c22" text-anchor="end">drawImage</text><rect x="628.0" y="101.0" width="2.4" height="6.0" fill="#2e8b3d" fill-opacity="1"/><rect x="628.0" y="108.0" width="2.3" height="6.0" fill="#2e8b3d" fill-opacity="0.8"/><rect x="628.0" y="115.0" width="2.5" height="6.0" fill="#2e8b3d" fill-opacity="0.6"/><rect x="628.0" y="122.0" width="2.4" height="6.0" fill="#2e8b3d" fill-opacity="0.4"/><text x="636.4638061879743" y="123" font-size="10" fill="#1c1c22">1.74–1.83 ms</text><text x="620" y="155" font-size="11" fill="#1c1c22" text-anchor="end">pattern</text><rect x="628.0" y="137.0" width="16.0" height="6.0" fill="#2e8b3d" fill-opacity="1"/><rect x="628.0" y="144.0" width="15.9" height="6.0" fill="#2e8b3d" fill-opacity="0.8"/><rect x="628.0" y="151.0" width="14.7" height="6.0" fill="#2e8b3d" fill-opacity="0.6"/><rect x="628.0" y="158.0" width="3.3" height="6.0" fill="#2e8b3d" fill-opacity="0.4"/><text x="650.0140688849971" y="159" font-size="10" fill="#1c1c22">2.45–11.9 ms</text><text x="516" y="185" font-size="10" fill="#8a8a96">2000 sprites, rotated 1.5×</text><text x="620" y="205" font-size="11" fill="#1c1c22" text-anchor="end">drawImage</text><rect x="628.0" y="187.0" width="3.2" height="6.0" fill="#2e8b3d" fill-opacity="1"/><rect x="628.0" y="194.0" width="4.1" height="6.0" fill="#2e8b3d" fill-opacity="0.8"/><rect x="628.0" y="201.0" width="3.9" height="6.0" fill="#2e8b3d" fill-opacity="0.6"/><rect x="628.0" y="208.0" width="3.5" height="6.0" fill="#2e8b3d" fill-opacity="0.4"/><text x="638.0884413309982" y="209" font-size="10" fill="#1c1c22">2.37–3.04 ms</text><text x="620" y="241" font-size="11" fill="#1c1c22" text-anchor="end">pattern</text><rect x="628.0" y="223.0" width="228.9" height="6.0" fill="#2e8b3d" fill-opacity="1"/><rect x="628.0" y="230.0" width="230.0" height="6.0" fill="#2e8b3d" fill-opacity="0.8"/><rect x="628.0" y="237.0" width="228.8" height="6.0" fill="#2e8b3d" fill-opacity="0.6"/><rect x="628.0" y="244.0" width="5.3" height="6.0" fill="#2e8b3d" fill-opacity="0.4"/><text x="864" y="245" font-size="10" fill="#1c1c22">3.94–171.3 ms</text><text x="516" y="271" font-size="10" fill="#8a8a96">1152 triangles</text><text x="620" y="291" font-size="11" fill="#1c1c22" text-anchor="end">clip+drawImage</text><rect x="628.0" y="273.0" width="3.2" height="6.0" fill="#2e8b3d" fill-opacity="1"/><rect x="628.0" y="280.0" width="3.8" height="6.0" fill="#2e8b3d" fill-opacity="0.8"/><rect x="628.0" y="287.0" width="3.3" height="6.0" fill="#2e8b3d" fill-opacity="0.6"/><rect x="628.0" y="294.0" width="3.1" height="6.0" fill="#2e8b3d" fill-opacity="0.4"/><text x="637.8481027437244" y="295" font-size="10" fill="#1c1c22">2.33–2.87 ms</text><text x="620" y="327" font-size="11" fill="#1c1c22" text-anchor="end">pattern fill</text><rect x="628.0" y="309.0" width="2.8" height="6.0" fill="#2e8b3d" fill-opacity="1"/><rect x="628.0" y="316.0" width="3.7" height="6.0" fill="#2e8b3d" fill-opacity="0.8"/><rect x="628.0" y="323.0" width="3.1" height="6.0" fill="#2e8b3d" fill-opacity="0.6"/><rect x="628.0" y="330.0" width="2.5" height="6.0" fill="#2e8b3d" fill-opacity="0.4"/><text x="637.7420315236427" y="331" font-size="10" fill="#1c1c22">1.83–2.79 ms</text><text x="16" y="365" font-size="11" fill="#e08a10" font-weight="bold">M4 · Firefox 156, software</text><text x="16" y="385" font-size="10" fill="#8a8a96">2000 sprites, 1:1</text><text x="120" y="405" font-size="11" fill="#1c1c22" text-anchor="end">drawImage</text><rect x="128.0" y="387.0" width="21.2" height="6.0" fill="#e08a10" fill-opacity="1"/><rect x="128.0" y="394.0" width="14.1" height="6.0" fill="#e08a10" fill-opacity="0.8"/><rect x="128.0" y="401.0" width="20.8" height="6.0" fill="#e08a10" fill-opacity="0.6"/><rect x="128.0" y="408.0" width="13.0" height="6.0" fill="#e08a10" fill-opacity="0.4"/><text x="155.15247016134785" y="409" font-size="10" fill="#1c1c22">11.1–18.0 ms</text><text x="120" y="441" font-size="11" fill="#1c1c22" text-anchor="end">pattern</text><rect x="128.0" y="423.0" width="21.1" height="6.0" fill="#e08a10" fill-opacity="1"/><rect x="128.0" y="430.0" width="13.2" height="6.0" fill="#e08a10" fill-opacity="0.8"/><rect x="128.0" y="437.0" width="19.9" height="6.0" fill="#e08a10" fill-opacity="0.6"/><rect x="128.0" y="444.0" width="12.5" height="6.0" fill="#e08a10" fill-opacity="0.4"/><text x="155.1161337668559" y="445" font-size="10" fill="#1c1c22">10.7–18.0 ms</text><text x="16" y="471" font-size="10" fill="#8a8a96">2000 sprites, rotated 1.5×</text><text x="120" y="491" font-size="11" fill="#1c1c22" text-anchor="end">drawImage</text><rect x="128.0" y="473.0" width="222.8" height="6.0" fill="#e08a10" fill-opacity="1"/><rect x="128.0" y="480.0" width="212.2" height="6.0" fill="#e08a10" fill-opacity="0.8"/><rect x="128.0" y="487.0" width="220.2" height="6.0" fill="#e08a10" fill-opacity="0.6"/><rect x="128.0" y="494.0" width="224.7" height="6.0" fill="#e08a10" fill-opacity="0.4"/><text x="358.68082070308117" y="495" font-size="10" fill="#1c1c22">181.1–191.7 ms</text><text x="120" y="527" font-size="11" fill="#1c1c22" text-anchor="end">pattern</text><rect x="128.0" y="509.0" width="230.0" height="6.0" fill="#e08a10" fill-opacity="1"/><rect x="128.0" y="516.0" width="200.4" height="6.0" fill="#e08a10" fill-opacity="0.8"/><rect x="128.0" y="523.0" width="217.8" height="6.0" fill="#e08a10" fill-opacity="0.6"/><rect x="128.0" y="530.0" width="197.0" height="6.0" fill="#e08a10" fill-opacity="0.4"/><text x="364" y="531" font-size="10" fill="#1c1c22">168.1–196.2 ms</text><text x="16" y="557" font-size="10" fill="#8a8a96">1152 triangles</text><text x="120" y="577" font-size="11" fill="#1c1c22" text-anchor="end">clip+drawImage</text><rect x="128.0" y="559.0" width="37.0" height="6.0" fill="#e08a10" fill-opacity="1"/><rect x="128.0" y="566.0" width="36.5" height="6.0" fill="#e08a10" fill-opacity="0.8"/><rect x="128.0" y="573.0" width="37.5" height="6.0" fill="#e08a10" fill-opacity="0.6"/><rect x="128.0" y="580.0" width="37.3" height="6.0" fill="#e08a10" fill-opacity="0.4"/><text x="171.50853624975792" y="581" font-size="10" fill="#1c1c22">31.1–32.0 ms</text><text x="120" y="613" font-size="11" fill="#1c1c22" text-anchor="end">pattern fill</text><rect x="128.0" y="595.0" width="22.5" height="6.0" fill="#e08a10" fill-opacity="1"/><rect x="128.0" y="602.0" width="22.9" height="6.0" fill="#e08a10" fill-opacity="0.8"/><rect x="128.0" y="609.0" width="22.7" height="6.0" fill="#e08a10" fill-opacity="0.6"/><rect x="128.0" y="616.0" width="20.7" height="6.0" fill="#e08a10" fill-opacity="0.4"/><text x="156.9411584837582" y="617" font-size="10" fill="#1c1c22">17.7–19.6 ms</text><text x="516" y="365" font-size="11" fill="#8e5ea2" font-weight="bold">M6 · Safari 26.6.2</text><text x="516" y="385" font-size="10" fill="#8a8a96">2000 sprites, 1:1</text><text x="620" y="405" font-size="11" fill="#1c1c22" text-anchor="end">drawImage</text><rect x="628.0" y="387.0" width="0.7" height="6.0" fill="#8e5ea2" fill-opacity="1"/><rect x="628.0" y="394.0" width="0.8" height="6.0" fill="#8e5ea2" fill-opacity="0.8"/><rect x="628.0" y="401.0" width="0.9" height="6.0" fill="#8e5ea2" fill-opacity="0.6"/><rect x="628.0" y="408.0" width="1.0" height="6.0" fill="#8e5ea2" fill-opacity="0.4"/><text x="634.974630610538" y="409" font-size="10" fill="#1c1c22">1.07–1.52 ms</text><text x="620" y="441" font-size="11" fill="#1c1c22" text-anchor="end">pattern</text><rect x="628.0" y="423.0" width="112.6" height="6.0" fill="#8e5ea2" fill-opacity="1"/><rect x="628.0" y="430.0" width="107.7" height="6.0" fill="#8e5ea2" fill-opacity="0.8"/><rect x="628.0" y="437.0" width="107.4" height="6.0" fill="#8e5ea2" fill-opacity="0.6"/><rect x="628.0" y="444.0" width="107.5" height="6.0" fill="#8e5ea2" fill-opacity="0.4"/><text x="746.6275439085587" y="445" font-size="10" fill="#1c1c22">167.5–175.7 ms</text><text x="516" y="471" font-size="10" fill="#8a8a96">2000 sprites, rotated 1.5×</text><text x="620" y="491" font-size="11" fill="#1c1c22" text-anchor="end">drawImage</text><rect x="628.0" y="473.0" width="1.3" height="6.0" fill="#8e5ea2" fill-opacity="1"/><rect x="628.0" y="480.0" width="1.5" height="6.0" fill="#8e5ea2" fill-opacity="0.8"/><rect x="628.0" y="487.0" width="1.7" height="6.0" fill="#8e5ea2" fill-opacity="0.6"/><rect x="628.0" y="494.0" width="1.8" height="6.0" fill="#8e5ea2" fill-opacity="0.4"/><text x="635.8447449121829" y="495" font-size="10" fill="#1c1c22">2.01–2.88 ms</text><text x="620" y="527" font-size="11" fill="#1c1c22" text-anchor="end">pattern</text><rect x="628.0" y="509.0" width="230.0" height="6.0" fill="#8e5ea2" fill-opacity="1"/><rect x="628.0" y="516.0" width="218.1" height="6.0" fill="#8e5ea2" fill-opacity="0.8"/><rect x="628.0" y="523.0" width="164.2" height="6.0" fill="#8e5ea2" fill-opacity="0.6"/><rect x="628.0" y="530.0" width="163.3" height="6.0" fill="#8e5ea2" fill-opacity="0.4"/><text x="864" y="531" font-size="10" fill="#1c1c22">254.6–358.7 ms</text><text x="516" y="557" font-size="10" fill="#8a8a96">1152 triangles</text><text x="620" y="577" font-size="11" fill="#1c1c22" text-anchor="end">clip+drawImage</text><rect x="628.0" y="559.0" width="64.4" height="6.0" fill="#8e5ea2" fill-opacity="1"/><rect x="628.0" y="566.0" width="62.2" height="6.0" fill="#8e5ea2" fill-opacity="0.8"/><rect x="628.0" y="573.0" width="61.8" height="6.0" fill="#8e5ea2" fill-opacity="0.6"/><rect x="628.0" y="580.0" width="61.2" height="6.0" fill="#8e5ea2" fill-opacity="0.4"/><text x="698.3519096738221" y="581" font-size="10" fill="#1c1c22">95.4–100.4 ms</text><text x="620" y="613" font-size="11" fill="#1c1c22" text-anchor="end">pattern fill</text><rect x="628.0" y="595.0" width="65.7" height="6.0" fill="#8e5ea2" fill-opacity="1"/><rect x="628.0" y="602.0" width="65.5" height="6.0" fill="#8e5ea2" fill-opacity="0.8"/><rect x="628.0" y="609.0" width="66.2" height="6.0" fill="#8e5ea2" fill-opacity="0.6"/><rect x="628.0" y="616.0" width="65.8" height="6.0" fill="#8e5ea2" fill-opacity="0.4"/><text x="700.2043490381934" y="617" font-size="10" fill="#1c1c22">102.1–103.3 ms</text><text x="16" y="659" font-size="12" fill="#1c1c22" font-weight="bold">A10 first use of a fresh 2048×2048 source: first draw + 1 px read, ms. Dark tick = the second draw.</text><text x="16" y="673" font-size="10" fill="#8a8a96">Preparation (onload, decode(), createImageBitmap) is not in the bar; the canvas row adds its main-thread copy at creation, light.</text><text x="182" y="707" font-size="11" fill="#1c1c22" text-anchor="end">img-png (onload only)</text><rect x="190.0" y="683.0" width="0.0" height="7.0" fill="#4f81bd" fill-opacity="0.35"/><rect x="190.0" y="683.0" width="530.2" height="7.0" fill="#4f81bd" fill-opacity="1"/><rect x="206.3" y="682.0" width="2.0" height="9.0" fill="#55555f" fill-opacity="1"/><text x="726.2189781021898" y="690" font-size="9" fill="#1c1c22">113.5 ms</text><rect x="190.0" y="694.0" width="0.0" height="7.0" fill="#e08a10" fill-opacity="0.35"/><rect x="190.0" y="694.0" width="289.6" height="7.0" fill="#e08a10" fill-opacity="1"/><rect x="207.7" y="693.0" width="2.0" height="9.0" fill="#55555f" fill-opacity="1"/><text x="485.6350364963503" y="701" font-size="9" fill="#1c1c22">62.0 ms</text><rect x="190.0" y="705.0" width="0.0" height="7.0" fill="#2e8b3d" fill-opacity="0.35"/><rect x="190.0" y="705.0" width="151.8" height="7.0" fill="#2e8b3d" fill-opacity="1"/><rect x="325.9" y="704.0" width="2.0" height="9.0" fill="#55555f" fill-opacity="1"/><text x="347.82481751824815" y="712" font-size="9" fill="#1c1c22">32.5 ms (2nd 29.3)</text><rect x="190.0" y="716.0" width="0.0" height="7.0" fill="#8e5ea2" fill-opacity="0.35"/><rect x="190.0" y="716.0" width="144.8" height="7.0" fill="#8e5ea2" fill-opacity="1"/><rect x="193.7" y="715.0" width="2.0" height="9.0" fill="#55555f" fill-opacity="1"/><text x="340.81751824817513" y="723" font-size="9" fill="#1c1c22">31.0 ms</text><text x="182" y="761" font-size="11" fill="#1c1c22" text-anchor="end">img-png + decode()</text><rect x="190.0" y="737.0" width="0.0" height="7.0" fill="#4f81bd" fill-opacity="0.35"/><rect x="190.0" y="737.0" width="535.8" height="7.0" fill="#4f81bd" fill-opacity="1"/><rect x="206.3" y="736.0" width="2.0" height="9.0" fill="#55555f" fill-opacity="1"/><text x="731.8248175182481" y="744" font-size="9" fill="#1c1c22">114.7 ms</text><rect x="190.0" y="748.0" width="0.0" height="7.0" fill="#e08a10" fill-opacity="0.35"/><rect x="190.0" y="748.0" width="18.7" height="7.0" fill="#e08a10" fill-opacity="1"/><rect x="203.0" y="747.0" width="2.0" height="9.0" fill="#55555f" fill-opacity="1"/><text x="214.68613138686132" y="755" font-size="9" fill="#1c1c22">4.0 ms</text><rect x="190.0" y="759.0" width="0.0" height="7.0" fill="#2e8b3d" fill-opacity="0.35"/><rect x="190.0" y="759.0" width="140.1" height="7.0" fill="#2e8b3d" fill-opacity="1"/><rect x="317.5" y="758.0" width="2.0" height="9.0" fill="#55555f" fill-opacity="1"/><text x="336.1459854014598" y="766" font-size="9" fill="#1c1c22">30.0 ms (2nd 27.5)</text><rect x="190.0" y="770.0" width="0.0" height="7.0" fill="#8e5ea2" fill-opacity="0.35"/><rect x="190.0" y="770.0" width="18.7" height="7.0" fill="#8e5ea2" fill-opacity="1"/><rect x="193.7" y="769.0" width="2.0" height="9.0" fill="#55555f" fill-opacity="1"/><text x="214.68613138686132" y="777" font-size="9" fill="#1c1c22">4.0 ms</text><text x="182" y="815" font-size="11" fill="#1c1c22" text-anchor="end">img-jpg (onload only)</text><rect x="190.0" y="791.0" width="0.0" height="7.0" fill="#4f81bd" fill-opacity="0.35"/><rect x="190.0" y="791.0" width="499.9" height="7.0" fill="#4f81bd" fill-opacity="1"/><rect x="207.7" y="790.0" width="2.0" height="9.0" fill="#55555f" fill-opacity="1"/><text x="695.8540145985401" y="798" font-size="9" fill="#1c1c22">107.0 ms</text><rect x="190.0" y="802.0" width="0.0" height="7.0" fill="#e08a10" fill-opacity="0.35"/><rect x="190.0" y="802.0" width="635.3" height="7.0" fill="#e08a10" fill-opacity="1"/><rect x="203.0" y="801.0" width="2.0" height="9.0" fill="#55555f" fill-opacity="1"/><text x="831.3284671532846" y="809" font-size="9" fill="#1c1c22">136.0 ms</text><rect x="190.0" y="813.0" width="0.0" height="7.0" fill="#2e8b3d" fill-opacity="0.35"/><rect x="190.0" y="813.0" width="79.4" height="7.0" fill="#2e8b3d" fill-opacity="1"/><rect x="271.7" y="812.0" width="2.0" height="9.0" fill="#55555f" fill-opacity="1"/><text x="275.4160583941606" y="820" font-size="9" fill="#1c1c22">17.0 ms (2nd 17.7)</text><rect x="190.0" y="824.0" width="0.0" height="7.0" fill="#8e5ea2" fill-opacity="0.35"/><rect x="190.0" y="824.0" width="102.8" height="7.0" fill="#8e5ea2" fill-opacity="1"/><rect x="193.7" y="823.0" width="2.0" height="9.0" fill="#55555f" fill-opacity="1"/><text x="298.77372262773724" y="831" font-size="9" fill="#1c1c22">22.0 ms</text><text x="182" y="869" font-size="11" fill="#1c1c22" text-anchor="end">img-jpg + decode()</text><rect x="190.0" y="845.0" width="0.0" height="7.0" fill="#4f81bd" fill-opacity="0.35"/><rect x="190.0" y="845.0" width="180.8" height="7.0" fill="#4f81bd" fill-opacity="1"/><rect x="206.3" y="844.0" width="2.0" height="9.0" fill="#55555f" fill-opacity="1"/><text x="376.78832116788317" y="852" font-size="9" fill="#1c1c22">38.7 ms</text><rect x="190.0" y="856.0" width="0.0" height="7.0" fill="#e08a10" fill-opacity="0.35"/><rect x="190.0" y="856.0" width="18.7" height="7.0" fill="#e08a10" fill-opacity="1"/><rect x="203.0" y="855.0" width="2.0" height="9.0" fill="#55555f" fill-opacity="1"/><text x="214.68613138686132" y="863" font-size="9" fill="#1c1c22">4.0 ms</text><rect x="190.0" y="867.0" width="0.0" height="7.0" fill="#2e8b3d" fill-opacity="0.35"/><rect x="190.0" y="867.0" width="78.9" height="7.0" fill="#2e8b3d" fill-opacity="1"/><rect x="272.6" y="866.0" width="2.0" height="9.0" fill="#55555f" fill-opacity="1"/><text x="274.94890510948903" y="874" font-size="9" fill="#1c1c22">16.9 ms (2nd 17.9)</text><rect x="190.0" y="878.0" width="0.0" height="7.0" fill="#8e5ea2" fill-opacity="0.35"/><rect x="190.0" y="878.0" width="14.0" height="7.0" fill="#8e5ea2" fill-opacity="1"/><rect x="193.7" y="877.0" width="2.0" height="9.0" fill="#55555f" fill-opacity="1"/><text x="210.01459854014598" y="885" font-size="9" fill="#1c1c22">3.0 ms</text><text x="182" y="923" font-size="11" fill="#1c1c22" text-anchor="end">bitmap (png blob)</text><rect x="190.0" y="899.0" width="0.0" height="7.0" fill="#4f81bd" fill-opacity="0.35"/><rect x="190.0" y="899.0" width="15.9" height="7.0" fill="#4f81bd" fill-opacity="1"/><rect x="203.5" y="898.0" width="2.0" height="9.0" fill="#55555f" fill-opacity="1"/><text x="211.8832116788321" y="906" font-size="9" fill="#1c1c22">3.4 ms</text><rect x="190.0" y="910.0" width="0.0" height="7.0" fill="#e08a10" fill-opacity="0.35"/><rect x="190.0" y="910.0" width="23.4" height="7.0" fill="#e08a10" fill-opacity="1"/><rect x="207.7" y="909.0" width="2.0" height="9.0" fill="#55555f" fill-opacity="1"/><text x="219.35766423357666" y="917" font-size="9" fill="#1c1c22">5.0 ms</text><rect x="190.0" y="921.0" width="0.0" height="7.0" fill="#2e8b3d" fill-opacity="0.35"/><rect x="190.0" y="921.0" width="18.7" height="7.0" fill="#2e8b3d" fill-opacity="1"/><rect x="197.4" y="920.0" width="2.0" height="9.0" fill="#55555f" fill-opacity="1"/><text x="214.68613138686132" y="928" font-size="9" fill="#1c1c22">4.0 ms</text><rect x="190.0" y="932.0" width="0.0" height="7.0" fill="#8e5ea2" fill-opacity="0.35"/><rect x="190.0" y="932.0" width="32.7" height="7.0" fill="#8e5ea2" fill-opacity="1"/><rect x="193.7" y="931.0" width="2.0" height="9.0" fill="#55555f" fill-opacity="1"/><text x="228.7007299270073" y="939" font-size="9" fill="#1c1c22">7.0 ms</text><text x="182" y="977" font-size="11" fill="#1c1c22" text-anchor="end">bitmap (jpg blob)</text><rect x="190.0" y="953.0" width="0.0" height="7.0" fill="#4f81bd" fill-opacity="0.35"/><rect x="190.0" y="953.0" width="15.9" height="7.0" fill="#4f81bd" fill-opacity="1"/><rect x="203.5" y="952.0" width="2.0" height="9.0" fill="#55555f" fill-opacity="1"/><text x="211.8832116788321" y="960" font-size="9" fill="#1c1c22">3.4 ms</text><rect x="190.0" y="964.0" width="0.0" height="7.0" fill="#e08a10" fill-opacity="0.35"/><rect x="190.0" y="964.0" width="14.0" height="7.0" fill="#e08a10" fill-opacity="1"/><rect x="203.0" y="963.0" width="2.0" height="9.0" fill="#55555f" fill-opacity="1"/><text x="210.01459854014598" y="971" font-size="9" fill="#1c1c22">3.0 ms</text><rect x="190.0" y="975.0" width="0.0" height="7.0" fill="#2e8b3d" fill-opacity="0.35"/><rect x="190.0" y="975.0" width="16.8" height="7.0" fill="#2e8b3d" fill-opacity="1"/><rect x="197.4" y="974.0" width="2.0" height="9.0" fill="#55555f" fill-opacity="1"/><text x="212.8175182481752" y="982" font-size="9" fill="#1c1c22">3.6 ms</text><rect x="190.0" y="986.0" width="0.0" height="7.0" fill="#8e5ea2" fill-opacity="0.35"/><rect x="190.0" y="986.0" width="9.3" height="7.0" fill="#8e5ea2" fill-opacity="1"/><rect x="193.7" y="985.0" width="2.0" height="9.0" fill="#55555f" fill-opacity="1"/><text x="205.34306569343065" y="993" font-size="9" fill="#1c1c22">2.0 ms</text><text x="182" y="1031" font-size="11" fill="#1c1c22" text-anchor="end">canvas (img drawn in)</text><rect x="190.0" y="1007.0" width="354.6" height="7.0" fill="#4f81bd" fill-opacity="0.35"/><rect x="544.6" y="1007.0" width="15.4" height="7.0" fill="#4f81bd" fill-opacity="1"/><rect x="558.1" y="1006.0" width="2.0" height="9.0" fill="#55555f" fill-opacity="1"/><text x="565.9854014598541" y="1014" font-size="9" fill="#1c1c22">76 + 3.3 ms</text><rect x="190.0" y="1018.0" width="345.7" height="7.0" fill="#e08a10" fill-opacity="0.35"/><rect x="535.7" y="1018.0" width="18.7" height="7.0" fill="#e08a10" fill-opacity="1"/><rect x="548.7" y="1017.0" width="2.0" height="9.0" fill="#55555f" fill-opacity="1"/><text x="560.3795620437957" y="1025" font-size="9" fill="#1c1c22">74 + 4.0 ms</text><rect x="190.0" y="1029.0" width="128.0" height="7.0" fill="#2e8b3d" fill-opacity="0.35"/><rect x="318.0" y="1029.0" width="7.5" height="7.0" fill="#2e8b3d" fill-opacity="1"/><rect x="328.2" y="1028.0" width="2.0" height="9.0" fill="#55555f" fill-opacity="1"/><text x="331.4744525547445" y="1036" font-size="9" fill="#1c1c22">27 + 1.6 ms</text><rect x="190.0" y="1040.0" width="149.5" height="7.0" fill="#8e5ea2" fill-opacity="0.35"/><rect x="339.5" y="1040.0" width="4.7" height="7.0" fill="#8e5ea2" fill-opacity="1"/><rect x="343.2" y="1039.0" width="2.0" height="9.0" fill="#55555f" fill-opacity="1"/><text x="350.16058394160586" y="1047" font-size="9" fill="#1c1c22">32 + 1.0 ms</text><rect x="16.0" y="1067.0" width="10.0" height="8.0" fill="#4f81bd" fill-opacity="1"/><text x="30" y="1075" font-size="10" fill="#1c1c22">M4 · Chromium 141, CPU</text><rect x="216.0" y="1067.0" width="10.0" height="8.0" fill="#e08a10" fill-opacity="1"/><text x="230" y="1075" font-size="10" fill="#1c1c22">M4 · Firefox 156, software</text><rect x="416.0" y="1067.0" width="10.0" height="8.0" fill="#2e8b3d" fill-opacity="1"/><text x="430" y="1075" font-size="10" fill="#1c1c22">M6 · Chrome 153, Graphite GPU</text><rect x="616.0" y="1067.0" width="10.0" height="8.0" fill="#8e5ea2" fill-opacity="1"/><text x="630" y="1075" font-size="10" fill="#1c1c22">M6 · Safari 26.6.2</text><text x="16" y="1091" font-size="10" fill="#8a8a96">M4 has no GPU; M6 is an Apple M4 MacBook Air at 100 Hz. M6 Firefox is left out: its per-case acceleration verdict was not recorded.</text></svg>
